<?xml version="1.0" encoding="UTF-8"?>
<svg version="1.1" xmlns="http://www.w3.org/2000/svg" width="82" height="75">
<path d="M0 0 C27.06 0 54.12 0 82 0 C82 24.75 82 49.5 82 75 C54.94 75 27.88 75 0 75 C0 50.25 0 25.5 0 0 Z " fill="#FCFCFC" transform="translate(0,0)"/>
<path d="M0 0 C2.64 0 5.28 0 8 0 C8 8.58 8 17.16 8 26 C8.99 26 9.98 26 11 26 C11.433125 27.11375 11.86625 28.2275 12.3125 29.375 C13.69911119 33.17512334 13.69911119 33.17512334 17 35 C16.85892253 33.54119891 16.71197585 32.08296449 16.5625 30.625 C16.48128906 29.81289063 16.40007813 29.00078125 16.31640625 28.1640625 C16.10909886 25.95727195 16.10909886 25.95727195 15 24 C12.03 24.495 12.03 24.495 9 25 C9.16749756 24.44280273 9.33499512 23.88560547 9.50756836 23.31152344 C10.0509859 20.76066709 10.02170324 18.6177034 9.87890625 16.015625 C9.83056641 15.08105469 9.78222656 14.14648438 9.73242188 13.18359375 C9.67634766 12.21550781 9.62027344 11.24742188 9.5625 10.25 C9.48418945 8.77466797 9.48418945 8.77466797 9.40429688 7.26953125 C9.27488563 4.84601151 9.13993095 2.42293136 9 0 C10.65 0 12.3 0 14 0 C13.98839844 1.02480469 13.97679687 2.04960937 13.96484375 3.10546875 C13.95545978 4.466144 13.94636023 5.82682124 13.9375 7.1875 C13.92493164 8.19780273 13.92493164 8.19780273 13.91210938 9.22851562 C13.89393462 12.95434131 14.10700608 16.3788042 15 20 C15.66 19.67 16.32 19.34 17 19 C17.65213292 16.97536745 17.65213292 16.97536745 18 15 C18.66 15 19.32 15 20 15 C20.495 15.99 20.495 15.99 21 17 C20.5547115 11.72684667 19.91626837 6.98229776 18 2 C20.41796875 2.6484375 20.41796875 2.6484375 23 4 C23.92578125 6.6015625 23.92578125 6.6015625 24.3125 9.625 C24.45300781 10.62789062 24.59351563 11.63078125 24.73828125 12.6640625 C24.82464844 13.43492188 24.91101562 14.20578125 25 15 C26.32 15 27.64 15 29 15 C27.09115308 10.45829004 27.09115308 10.45829004 25 6 C28.79379058 7.49041773 30.68343758 9.69062512 33 13 C33 13.66 33 14.32 33 15 C32.08476563 15.33773438 31.16953125 15.67546875 30.2265625 16.0234375 C29.03804687 16.46945313 27.84953125 16.91546875 26.625 17.375 C25.44164062 17.81585937 24.25828125 18.25671875 23.0390625 18.7109375 C19.95506554 19.7950342 19.95506554 19.7950342 18 22 C22.455 26.95 22.455 26.95 27 32 C26.67 28.7 26.34 25.4 26 22 C25.67 23.98 25.34 25.96 25 28 C23.66666667 25.33333333 22.33333333 22.66666667 21 20 C22.24420647 19.4654744 23.49570936 18.94791389 24.75 18.4375 C25.44609375 18.14746094 26.1421875 17.85742188 26.859375 17.55859375 C29.36203061 16.90552851 30.60897519 17.0515768 33 18 C37.19002678 22.66888698 38.34251755 25.52782442 38.29296875 31.671875 C37.85033425 35.18934382 36.25830531 37.34317023 34 40 C33.01 40.495 33.01 40.495 32 41 C32.495 43.475 32.495 43.475 33 46 C32.34 46 31.68 46 31 46 C30.67 45.34 30.34 44.68 30 44 C29.01 44 28.02 44 27 44 C26.67 45.32 26.34 46.64 26 48 C27.98 47.505 27.98 47.505 30 47 C29.67 47.99 29.34 48.98 29 50 C27.68 50 26.36 50 25 50 C25.495 52.475 25.495 52.475 26 55 C18.53219249 58.98406604 11.61217754 61.28039454 3 60 C0.81024227 56.71536341 0.00193437 53.79303725 -1 50 C-0.41196203 53.02419525 0.22678118 56.01758453 1 59 C-4.875 58.125 -4.875 58.125 -6 57 C-6.23701239 54.14122091 -6.42219182 51.30116703 -6.5625 48.4375 C-6.60568359 47.63119141 -6.64886719 46.82488281 -6.69335938 45.99414062 C-6.79975262 43.99631195 -6.90040888 41.9981793 -7 40 C-7.639375 39.87625 -8.27875 39.7525 -8.9375 39.625 C-9.618125 39.41875 -10.29875 39.2125 -11 39 C-11.33 38.34 -11.66 37.68 -12 37 C-13.32 36.67 -14.64 36.34 -16 36 C-15.34 38.64 -14.68 41.28 -14 44 C-12.02 43.505 -12.02 43.505 -10 43 C-9.67 45.31 -9.34 47.62 -9 50 C-9.99 49.67 -10.98 49.34 -12 49 C-11.34 50.65 -10.68 52.3 -10 54 C-17.01655337 49.65641934 -19.33182885 42.46520225 -22 35 C-22 34.34 -22 33.68 -22 33 C-20.515 32.505 -20.515 32.505 -19 32 C-19.66 31.67 -20.32 31.34 -21 31 C-21.66883863 23.04825188 -20.93667001 17.43101337 -16 11 C-13.1875 8.4375 -13.1875 8.4375 -11 7 C-11.442365 9.47724402 -11.90943636 10.88679545 -13.5 12.875 C-15.3792104 15.53721474 -15.54779962 17.80850885 -16 21 C-15.03912864 19.10545176 -14.08141031 17.20930419 -13.125 15.3125 C-12.59132813 14.25675781 -12.05765625 13.20101563 -11.5078125 12.11328125 C-9.96564256 9.09902472 -9.96564256 9.09902472 -9.0546875 6.16796875 C-8.70664062 5.45253906 -8.35859375 4.73710937 -8 4 C-6.68 3.67 -5.36 3.34 -4 3 C-4 6.96 -4 10.92 -4 15 C-3.87882812 14.08476562 -3.75765625 13.16953125 -3.6328125 12.2265625 C-3.46523438 11.03804687 -3.29765625 9.84953125 -3.125 8.625 C-2.96257813 7.44164062 -2.80015625 6.25828125 -2.6328125 5.0390625 C-2 2 -2 2 0 0 Z " fill="#CCCCCC" transform="translate(33,7)"/>
<path d="M0 0 C2.01822917 0.06510417 4.03645833 0.13020833 6.0546875 0.1953125 C6.04308594 1.35546875 6.03148438 2.515625 6.01953125 3.7109375 C5.95858411 12.59588739 6.08342308 21.34986866 7.0546875 30.1953125 C5.4046875 30.5253125 3.7546875 30.8553125 2.0546875 31.1953125 C3.3746875 31.1953125 4.6946875 31.1953125 6.0546875 31.1953125 C6.0340625 32.2678125 6.0134375 33.3403125 5.9921875 34.4453125 C5.89856476 37.91150031 5.89856476 37.91150031 6.55078125 40.05078125 C7.20212062 42.82276041 7.18673829 45.41281959 7.1796875 48.2578125 C7.18355469 49.82208984 7.18355469 49.82208984 7.1875 51.41796875 C7.0546875 54.1953125 7.0546875 54.1953125 6.0546875 57.1953125 C3.0546875 56.1953125 3.0546875 56.1953125 2.10546875 54.34765625 C1.86183594 53.61675781 1.61820313 52.88585938 1.3671875 52.1328125 C1.11582031 51.39933594 0.86445312 50.66585937 0.60546875 49.91015625 C0.42371094 49.34425781 0.24195312 48.77835938 0.0546875 48.1953125 C0.7146875 47.5353125 1.3746875 46.8753125 2.0546875 46.1953125 C2.49826426 41.68561549 2.58426502 39.25446755 0.5546875 35.1953125 C-3.06378939 32.30053099 -5.39812528 32.81638023 -9.9453125 33.1953125 C-9.7596875 33.9790625 -9.5740625 34.7628125 -9.3828125 35.5703125 C-8.9453125 38.1953125 -8.9453125 38.1953125 -9.9453125 40.1953125 C-10.9353125 39.8653125 -11.9253125 39.5353125 -12.9453125 39.1953125 C-13.2753125 38.5353125 -13.6053125 37.8753125 -13.9453125 37.1953125 C-15.2653125 36.8653125 -16.5853125 36.5353125 -17.9453125 36.1953125 C-17.2853125 38.8353125 -16.6253125 41.4753125 -15.9453125 44.1953125 C-13.9653125 43.7003125 -13.9653125 43.7003125 -11.9453125 43.1953125 C-11.6153125 45.5053125 -11.2853125 47.8153125 -10.9453125 50.1953125 C-11.9353125 49.8653125 -12.9253125 49.5353125 -13.9453125 49.1953125 C-13.2853125 50.8453125 -12.6253125 52.4953125 -11.9453125 54.1953125 C-18.96186587 49.85173184 -21.27714135 42.66051475 -23.9453125 35.1953125 C-23.9453125 34.5353125 -23.9453125 33.8753125 -23.9453125 33.1953125 C-22.4603125 32.7003125 -22.4603125 32.7003125 -20.9453125 32.1953125 C-21.6053125 31.8653125 -22.2653125 31.5353125 -22.9453125 31.1953125 C-23.61415113 23.24356438 -22.88198251 17.62632587 -17.9453125 11.1953125 C-15.1328125 8.6328125 -15.1328125 8.6328125 -12.9453125 7.1953125 C-13.3876775 9.67255652 -13.85474886 11.08210795 -15.4453125 13.0703125 C-17.3245229 15.73252724 -17.49311212 18.00382135 -17.9453125 21.1953125 C-16.98444114 19.30076426 -16.02672281 17.40461669 -15.0703125 15.5078125 C-14.53664063 14.45207031 -14.00296875 13.39632813 -13.453125 12.30859375 C-11.91095506 9.29433722 -11.91095506 9.29433722 -11 6.36328125 C-10.65195312 5.64785156 -10.30390625 4.93242187 -9.9453125 4.1953125 C-8.6253125 3.8653125 -7.3053125 3.5353125 -5.9453125 3.1953125 C-5.9453125 7.1553125 -5.9453125 11.1153125 -5.9453125 15.1953125 C-5.82414062 14.28007812 -5.70296875 13.36484375 -5.578125 12.421875 C-5.41054688 11.23335937 -5.24296875 10.04484375 -5.0703125 8.8203125 C-4.90789063 7.63695312 -4.74546875 6.45359375 -4.578125 5.234375 C-3.90616045 2.00728599 -3.49427196 0.35083052 0 0 Z " fill="#EBEBEB" transform="translate(34.9453125,6.8046875)"/>
<path d="M0 0 C2.89036468 2.56921305 4.67620121 4.24553923 5.3828125 8.07421875 C5.48100781 11.86876615 5.12437114 13.81344329 3 17 C4.41427461 21.85804415 4.41427461 21.85804415 8 25 C8.02719556 22.62492145 8.04693247 20.25016036 8.0625 17.875 C8.07087891 17.20984375 8.07925781 16.5446875 8.08789062 15.859375 C8.10782292 11.79318646 7.78890161 7.9879908 7 4 C12.52706913 4.72724594 17.69960141 6.33445973 23 8 C22.67 9.98 22.34 11.96 22 14 C21.5875 13.360625 21.175 12.72125 20.75 12.0625 C18.82189513 9.79009069 17.88575819 9.39803561 15 9 C14.67 11.64 14.34 14.28 14 17 C15.98 16.34 17.96 15.68 20 15 C19.34 16.98 18.68 18.96 18 21 C16.35 20.01 14.7 19.02 13 18 C13 20.31 13 22.62 13 25 C16.26954202 24.43628586 17.82575883 23.50037734 20 21 C20.33 21.33 20.66 21.66 21 22 C22.58255197 17.67435795 23.45144652 13.571279 24 9 C26.97 9.33 29.94 9.66 33 10 C33 11.32 33 12.64 33 14 C32.34 14 31.68 14 31 14 C30.505 13.01 30.505 13.01 30 12 C29.01 12 28.02 12 27 12 C26.67 13.32 26.34 14.64 26 16 C27.32 15.67 28.64 15.34 30 15 C29.67 15.99 29.34 16.98 29 18 C27.68 18 26.36 18 25 18 C25.495 20.475 25.495 20.475 26 23 C18.53219249 26.98406604 11.61217754 29.28039454 3 28 C0.81024227 24.71536341 0.00193437 21.79303725 -1 18 C-0.41196203 21.02419525 0.22678118 24.01758453 1 27 C-4.875 26.125 -4.875 26.125 -6 25 C-6.21367451 22.28752076 -6.3773322 19.59186451 -6.5 16.875 C-6.74928044 11.52008674 -7.15700713 6.29680522 -8 1 C-4.87910113 -0.04029962 -3.23374059 -0.53895677 0 0 Z " fill="#161616" transform="translate(33,39)"/>
<path d="M0 0 C1.65 0 3.3 0 5 0 C4.98839844 1.02480469 4.97679687 2.04960937 4.96484375 3.10546875 C4.95545978 4.466144 4.94636023 5.82682124 4.9375 7.1875 C4.92912109 7.86103516 4.92074219 8.53457031 4.91210938 9.22851562 C4.89393462 12.95434131 5.10700608 16.3788042 6 20 C6.66 19.67 7.32 19.34 8 19 C8.65213292 16.97536745 8.65213292 16.97536745 9 15 C9.66 15 10.32 15 11 15 C11.33 15.66 11.66 16.32 12 17 C11.5547115 11.72684667 10.91626837 6.98229776 9 2 C11.41796875 2.6484375 11.41796875 2.6484375 14 4 C14.92578125 6.6015625 14.92578125 6.6015625 15.3125 9.625 C15.45300781 10.62789062 15.59351563 11.63078125 15.73828125 12.6640625 C15.82464844 13.43492188 15.91101562 14.20578125 16 15 C17.32 15 18.64 15 20 15 C18.09115308 10.45829004 18.09115308 10.45829004 16 6 C19.79379058 7.49041773 21.68343758 9.69062512 24 13 C24 13.66 24 14.32 24 15 C23.08476563 15.33773438 22.16953125 15.67546875 21.2265625 16.0234375 C20.03804687 16.46945313 18.84953125 16.91546875 17.625 17.375 C16.44164063 17.81585937 15.25828125 18.25671875 14.0390625 18.7109375 C10.95506554 19.7950342 10.95506554 19.7950342 9 22 C11.97 25.3 14.94 28.6 18 32 C17.505 27.05 17.505 27.05 17 22 C16.67 23.98 16.34 25.96 16 28 C14.66666667 25.33333333 13.33333333 22.66666667 12 20 C15.08809695 18.23537317 16.23312136 18 20 18 C20.7795458 20.80747455 21.1710149 23.42029808 21.31640625 26.328125 C21.35830078 27.12734375 21.40019531 27.9265625 21.44335938 28.75 C21.48267578 29.575 21.52199219 30.4 21.5625 31.25 C21.60568359 32.09046875 21.64886719 32.9309375 21.69335938 33.796875 C21.79908543 35.86440671 21.90001295 37.93218281 22 40 C18.535 39.505 18.535 39.505 15 39 C14.74605469 38.28972656 14.49210937 37.57945313 14.23046875 36.84765625 C13.88628906 35.92855469 13.54210938 35.00945313 13.1875 34.0625 C12.85105469 33.14597656 12.51460937 32.22945312 12.16796875 31.28515625 C11.16590906 28.6659576 11.16590906 28.6659576 8 28 C6.8125 25.9375 6.8125 25.9375 6 24 C4.02 24.33 2.04 24.66 0 25 C0.16749756 24.44280273 0.33499512 23.88560547 0.50756836 23.31152344 C1.0509859 20.76066709 1.02170324 18.6177034 0.87890625 16.015625 C0.83056641 15.08105469 0.78222656 14.14648438 0.73242188 13.18359375 C0.67634766 12.21550781 0.62027344 11.24742188 0.5625 10.25 C0.51029297 9.26644531 0.45808594 8.28289063 0.40429688 7.26953125 C0.27488563 4.84601151 0.13993095 2.42293136 0 0 Z " fill="#141414" transform="translate(42,7)"/>
<path d="M0 0 C0.99 0 1.98 0 3 0 C2.80664062 0.76441406 2.61328125 1.52882813 2.4140625 2.31640625 C0.33942021 10.85119706 -0.97580958 19.28835676 -2 28 C-3.32 28.33 -4.64 28.66 -6 29 C-6.66 24.71 -7.32 20.42 -8 16 C-10.92348817 19.65436021 -12.55222664 21.74997089 -14.25 25.8125 C-14.58515625 26.60269531 -14.9203125 27.39289062 -15.265625 28.20703125 C-15.50796875 28.79871094 -15.7503125 29.39039062 -16 30 C-17.32 30 -18.64 30 -20 30 C-20.66883863 22.04825188 -19.93667001 16.43101337 -15 10 C-12.1875 7.4375 -12.1875 7.4375 -10 6 C-10.442365 8.47724402 -10.90943636 9.88679545 -12.5 11.875 C-14.3792104 14.53721474 -14.54779962 16.80850885 -15 20 C-14.03912864 18.10545176 -13.08141031 16.20930419 -12.125 14.3125 C-11.59132813 13.25675781 -11.05765625 12.20101563 -10.5078125 11.11328125 C-8.96564256 8.09902472 -8.96564256 8.09902472 -8.0546875 5.16796875 C-7.70664062 4.45253906 -7.35859375 3.73710937 -7 3 C-5.68 2.67 -4.36 2.34 -3 2 C-3 5.96 -3 9.92 -3 14 C-2.86722656 13.07316406 -2.73445313 12.14632813 -2.59765625 11.19140625 C-2.42105469 9.99386719 -2.24445312 8.79632813 -2.0625 7.5625 C-1.80146484 5.77005859 -1.80146484 5.77005859 -1.53515625 3.94140625 C-1 1 -1 1 0 0 Z " fill="#050505" transform="translate(32,8)"/>
<path d="M0 0 C5.52706913 0.72724594 10.69960141 2.33445973 16 4 C15.67 5.98 15.34 7.96 15 10 C14.5875 9.360625 14.175 8.72125 13.75 8.0625 C11.82189513 5.79009069 10.88575819 5.39803561 8 5 C7.67 7.64 7.34 10.28 7 13 C8.98 12.34 10.96 11.68 13 11 C12.34 12.98 11.68 14.96 11 17 C9.35 16.01 7.7 15.02 6 14 C6 16.31 6 18.62 6 21 C9.26954202 20.43628586 10.82575883 19.50037734 13 17 C13.33 17.33 13.66 17.66 14 18 C15.58255197 13.67435795 16.45144652 9.571279 17 5 C19.97 5.33 22.94 5.66 26 6 C26 7.32 26 8.64 26 10 C25.34 10 24.68 10 24 10 C23.67 9.34 23.34 8.68 23 8 C22.01 8 21.02 8 20 8 C19.67 9.32 19.34 10.64 19 12 C20.32 11.67 21.64 11.34 23 11 C22.67 11.99 22.34 12.98 22 14 C20.68 14 19.36 14 18 14 C18.33 15.65 18.66 17.3 19 19 C12.91026866 22.49595688 8.00004889 23.71311275 1 24 C1.01160156 22.77023438 1.02320313 21.54046875 1.03515625 20.2734375 C1.04454022 18.64062653 1.05363977 17.0078139 1.0625 15.375 C1.07087891 14.56675781 1.07925781 13.75851563 1.08789062 12.92578125 C1.1058955 8.49658082 0.89622662 4.36116576 0 0 Z " fill="#0B0B0B" transform="translate(40,43)"/>
<path d="M0 0 C0.66 0.33 1.32 0.66 2 1 C2 5.62 2 10.24 2 15 C2.99 15.33 3.98 15.66 5 16 C4.01 16.33 3.02 16.66 2 17 C2.185625 17.78375 2.37125 18.5675 2.5625 19.375 C3 22 3 22 2 24 C1.01 23.67 0.02 23.34 -1 23 C-1.33 22.34 -1.66 21.68 -2 21 C-3.32 20.67 -4.64 20.34 -6 20 C-5.34 22.64 -4.68 25.28 -4 28 C-2.68 27.67 -1.36 27.34 0 27 C0.33 29.31 0.66 31.62 1 34 C0.01 33.67 -0.98 33.34 -2 33 C-1.34 34.65 -0.68 36.3 0 38 C-7.01655337 33.65641934 -9.33182885 26.46520225 -12 19 C-12 18.34 -12 17.68 -12 17 C-11.195625 16.773125 -10.39125 16.54625 -9.5625 16.3125 C-8.716875 15.879375 -7.87125 15.44625 -7 15 C-6.65334443 13.33605325 -6.32238547 11.66881889 -6 10 C-4.58984375 7.32421875 -4.58984375 7.32421875 -2.9375 4.6875 C-2.38964844 3.80449219 -1.84179688 2.92148437 -1.27734375 2.01171875 C-0.85582031 1.34785156 -0.43429688 0.68398438 0 0 Z " fill="#F1F1F1" transform="translate(23,23)"/>
<path d="M0 0 C4.6205109 1.15512773 5.33984027 2.23908452 8 6 C9.73610461 9.47220922 9.46497786 13.20374242 9 17 C7.25 20.5 7.25 20.5 5 23 C3.68 23.33 2.36 23.66 1 24 C0.67 16.08 0.34 8.16 0 0 Z " fill="#191919" transform="translate(62,24)"/>
<path d="M0 0 C1.65 0 3.3 0 5 0 C5.0867562 4.29154022 5.1403089 8.58285668 5.1875 12.875 C5.21263672 14.09832031 5.23777344 15.32164063 5.26367188 16.58203125 C5.27817383 18.33193359 5.27817383 18.33193359 5.29296875 20.1171875 C5.3086792 21.19597168 5.32438965 22.27475586 5.34057617 23.38623047 C5.22818604 24.24877441 5.1157959 25.11131836 5 26 C2 28 2 28 -2 28 C-1.76228882 27.18450684 -1.76228882 27.18450684 -1.51977539 26.35253906 C-0.92399019 23.65597437 -0.78635695 21.11930105 -0.68359375 18.359375 C-0.62075195 16.75449219 -0.62075195 16.75449219 -0.55664062 15.1171875 C-0.51732422 14.00601562 -0.47800781 12.89484375 -0.4375 11.75 C-0.39431641 10.62335937 -0.35113281 9.49671875 -0.30664062 8.3359375 C-0.20067985 5.55741046 -0.09860858 2.77879609 0 0 Z " fill="#171717" transform="translate(36,7)"/>
<path d="M0 0 C0.33 0.99 0.66 1.98 1 3 C0.071875 4.1446875 0.071875 4.1446875 -0.875 5.3125 C-3.25055578 8.31687937 -3.65043491 10.24217524 -4 14 C-3.608125 13.030625 -3.21625 12.06125 -2.8125 11.0625 C-1 8 -1 8 1.6875 7.125 C2.450625 7.08375 3.21375 7.0425 4 7 C3 10 3 10 1.1875 12.125 C-1.61693761 15.81083229 -3.2529206 19.73452423 -5 24 C-6.32 24 -7.64 24 -9 24 C-9.67595289 15.96367115 -8.80918086 10.56664355 -4 4 C-1.6875 1.4375 -1.6875 1.4375 0 0 Z " fill="#141414" transform="translate(21,14)"/>
<path d="M0 0 C0.33 0 0.66 0 1 0 C1.19461488 2.93718767 1.38097593 5.87449932 1.5625 8.8125 C1.61857422 9.64587891 1.67464844 10.47925781 1.73242188 11.33789062 C1.78076172 12.14033203 1.82910156 12.94277344 1.87890625 13.76953125 C1.9260376 14.50792236 1.97316895 15.24631348 2.02172852 16.00708008 C2 18 2 18 1 21 C2.65 20.67 4.3 20.34 6 20 C8.13586678 23.20380017 8.23132175 24.01939967 8.125 27.6875 C8.10695313 28.49574219 8.08890625 29.30398437 8.0703125 30.13671875 C8.03550781 31.05904297 8.03550781 31.05904297 8 32 C4.83884224 30.63016497 4.0072908 30.0109362 2 27 C2 25.68 2 24.36 2 23 C1.01 23 0.02 23 -1 23 C-3.6875 5.53125 -3.6875 5.53125 0 0 Z " fill="#D5D5D5" transform="translate(42,10)"/>
<path d="M0 0 C4.29 0 8.58 0 13 0 C13 2.31 13 4.62 13 7 C12.5875 6.525625 12.175 6.05125 11.75 5.5625 C9.86673565 3.63715751 9.86673565 3.63715751 6 3 C6.66 5.64 7.32 8.28 8 11 C9.32 10.67 10.64 10.34 12 10 C12.33 12.31 12.66 14.62 13 17 C12.01 16.67 11.02 16.34 10 16 C10.66 17.65 11.32 19.3 12 21 C4.98344663 16.65641934 2.66817115 9.46520225 0 2 C0 1.34 0 0.68 0 0 Z " fill="#111111" transform="translate(11,40)"/>
<path d="M0 0 C-0.01160156 0.91523437 -0.02320313 1.83046875 -0.03515625 2.7734375 C-0.04417969 3.96195313 -0.05320312 5.15046875 -0.0625 6.375 C-0.07410156 7.55835938 -0.08570313 8.74171875 -0.09765625 9.9609375 C-0.21466593 12.91921521 -0.21466593 12.91921521 1 15 C0.34 15 -0.32 15 -1 15 C0.32 18.63 1.64 22.26 3 26 C-2.875 25.125 -2.875 25.125 -4 24 C-4.21367451 21.28752076 -4.3773322 18.59186451 -4.5 15.875 C-4.74928044 10.52008674 -5.15700713 5.29680522 -6 0 C-3 -1 -3 -1 0 0 Z " fill="#121212" transform="translate(31,40)"/>
<path d="M0 0 C2.4375 0.375 2.4375 0.375 5 1 C5.33 1.66 5.66 2.32 6 3 C6.66 2.34 7.32 1.68 8 1 C8.16682272 5.92127034 8.24828052 9.50343896 6 14 C5.34 13.67 4.68 13.34 4 13 C3.01 14.485 3.01 14.485 2 16 C0.68 16 -0.64 16 -2 16 C-2 13.69 -2 11.38 -2 9 C-0.02 9.99 -0.02 9.99 2 11 C2.33 9.68 2.66 8.36 3 7 C1.68 7.33 0.36 7.66 -1 8 C-0.67 5.36 -0.34 2.72 0 0 Z " fill="#E8E8E8" transform="translate(48,48)"/>
<path d="M0 0 C0.7795458 2.80747455 1.1710149 5.42029808 1.31640625 8.328125 C1.37924805 9.52695312 1.37924805 9.52695312 1.44335938 10.75 C1.48267578 11.575 1.52199219 12.4 1.5625 13.25 C1.60568359 14.09046875 1.64886719 14.9309375 1.69335938 15.796875 C1.79908543 17.86440671 1.90001295 19.93218281 2 22 C0.35 22 -1.3 22 -3 22 C-2.91621094 21.03578125 -2.83242188 20.0715625 -2.74609375 19.078125 C-2.64425781 17.81484375 -2.54242188 16.5515625 -2.4375 15.25 C-2.33308594 13.99703125 -2.22867188 12.7440625 -2.12109375 11.453125 C-2.02123277 8.60547636 -2.09415705 6.65713933 -3 4 C-3.33 5.98 -3.66 7.96 -4 10 C-5.33333333 7.33333333 -6.66666667 4.66666667 -8 2 C-4.91190305 0.23537317 -3.76687864 0 0 0 Z " fill="#0A0A0A" transform="translate(62,25)"/>
<path d="M0 0 C2.97 0.33 5.94 0.66 9 1 C9 2.32 9 3.64 9 5 C8.34 5 7.68 5 7 5 C6.67 4.34 6.34 3.68 6 3 C5.01 3 4.02 3 3 3 C2.67 4.32 2.34 5.64 2 7 C3.32 6.67 4.64 6.34 6 6 C5.67 6.99 5.34 7.98 5 9 C3.68 9 2.36 9 1 9 C1.33 10.65 1.66 12.3 2 14 C0.76115681 14.72767003 -0.49168341 15.43154815 -1.75 16.125 C-2.44609375 16.51945312 -3.1421875 16.91390625 -3.859375 17.3203125 C-6 18 -6 18 -8.265625 17.1171875 C-9.12414063 16.56417969 -9.12414063 16.56417969 -10 16 C-9.01 15.67 -8.02 15.34 -7 15 C-5.33289654 13.50014391 -5.33289654 13.50014391 -4 12 C-3.67 12.33 -3.34 12.66 -3 13 C-1.41744803 8.67435795 -0.54855348 4.571279 0 0 Z " fill="#1C1C1C" transform="translate(57,48)"/>
<path d="M0 0 C1.65 0 3.3 0 5 0 C5 6.93 5 13.86 5 21 C5.66 21.33 6.32 21.66 7 22 C4.69 22.99 2.38 23.98 0 25 C0.16749756 24.44280273 0.33499512 23.88560547 0.50756836 23.31152344 C1.0509859 20.76066709 1.02170324 18.6177034 0.87890625 16.015625 C0.83056641 15.08105469 0.78222656 14.14648438 0.73242188 13.18359375 C0.67634766 12.21550781 0.62027344 11.24742188 0.5625 10.25 C0.51029297 9.26644531 0.45808594 8.28289063 0.40429688 7.26953125 C0.27488563 4.84601151 0.13993095 2.42293136 0 0 Z " fill="#0B0B0B" transform="translate(42,7)"/>
<path d="M0 0 C0.66 0 1.32 0 2 0 C2.125 2.375 2.125 2.375 2 5 C1.34 5.66 0.68 6.32 0 7 C0.84884766 7.85271484 0.84884766 7.85271484 1.71484375 8.72265625 C9 16.39191564 9 16.39191564 9 23 C8.01 23.33 7.02 23.66 6 24 C5.74605469 23.28972656 5.49210937 22.57945313 5.23046875 21.84765625 C4.88628906 20.92855469 4.54210938 20.00945313 4.1875 19.0625 C3.85105469 18.14597656 3.51460937 17.22945312 3.16796875 16.28515625 C2.16590906 13.6659576 2.16590906 13.6659576 -1 13 C-4.12800621 7.97284717 -4.12800621 7.97284717 -3.6875 4.625 C-3.460625 4.08875 -3.23375 3.5525 -3 3 C-3 3.66 -3 4.32 -3 5 C-2.34 4.67 -1.68 4.34 -1 4 C-0.34786708 1.97536745 -0.34786708 1.97536745 0 0 Z " fill="#2C2C2C" transform="translate(51,22)"/>
<path d="M0 0 C-1.6232687 0.6708712 -3.24867578 1.33657029 -4.875 2 C-5.77992187 2.37125 -6.68484375 2.7425 -7.6171875 3.125 C-10 4 -10 4 -12 4 C-11.01 5.32 -10.02 6.64 -9 8 C-8.34 7.01 -7.68 6.02 -7 5 C-5.13334258 8.89718171 -4.86034239 11.54084185 -5.375 15.8125 C-5.48585938 16.78832031 -5.59671875 17.76414062 -5.7109375 18.76953125 C-5.85402344 19.87361328 -5.85402344 19.87361328 -6 21 C-6.33 21 -6.66 21 -7 21 C-7.185625 20.01 -7.37125 19.02 -7.5625 18 C-8.94832514 12.98023339 -12.44894727 9.65549546 -16 6 C-13.52216837 3.07699862 -11.0148289 2.02659673 -7.4375 0.75 C-6.46683594 0.39421875 -5.49617188 0.0384375 -4.49609375 -0.328125 C-2 -1 -2 -1 0 0 Z " fill="#D6D6D6" transform="translate(66,23)"/>
<path d="M0 0 C4 2 4 2 5 4 C5.17369832 5.95339423 5.26696102 7.91442704 5.3125 9.875 C5.36857422 11.44894531 5.36857422 11.44894531 5.42578125 13.0546875 C5 16 5 16 1 20 C0.67 13.4 0.34 6.8 0 0 Z " fill="#E8E8E8" transform="translate(62,26)"/>
<path d="M0 0 C0.99 0 1.98 0 3 0 C5.875 6.625 5.875 6.625 7 10 C3.62537285 9.45276317 1.91765 8.9451 -1 7 C-0.67 6.34 -0.34 5.68 0 5 C-0.66 5.66 -1.32 6.32 -2 7 C-4.125 6.625 -4.125 6.625 -6 6 C-4.75 4.4375 -4.75 4.4375 -3 3 C-0.8125 3.3125 -0.8125 3.3125 1 4 C0.67 2.68 0.34 1.36 0 0 Z " fill="#212121" transform="translate(41,33)"/>
<path d="M0 0 C3 1 3 1 4 3 C4.06950541 4.54023996 4.08452357 6.08334988 4.0625 7.625 C4.05347656 8.44226562 4.04445313 9.25953125 4.03515625 10.1015625 C4.02355469 10.72804688 4.01195312 11.35453125 4 12 C2.078125 11.2890625 2.078125 11.2890625 0 10 C-0.828125 7.8359375 -0.828125 7.8359375 -1.25 5.375 C-1.39953125 4.55773438 -1.5490625 3.74046875 -1.703125 2.8984375 C-1.80109375 2.27195313 -1.8990625 1.64546875 -2 1 C-1.34 0.67 -0.68 0.34 0 0 Z " fill="#F8F8F8" transform="translate(46,30)"/>
<path d="M0 0 C0.99 0.99 1.98 1.98 3 3 C3.99 2.67 4.98 2.34 6 2 C6.33 4.31 6.66 6.62 7 9 C6.01 8.67 5.02 8.34 4 8 C4.66 9.65 5.32 11.3 6 13 C0.24642289 8.83783784 0.24642289 8.83783784 -0.9375 4.8125 C-1 2 -1 2 0 0 Z " fill="#191919" transform="translate(17,48)"/>
<path d="M0 0 C0.99 0 1.98 0 3 0 C2.79503906 0.82242187 2.59007812 1.64484375 2.37890625 2.4921875 C0.72841996 9.33104455 -0.54023916 15.97675688 -1 23 C-1.33 23 -1.66 23 -2 23 C-2 21.35 -2 19.7 -2 18 C-2.66 18 -3.32 18 -4 18 C-3.855625 17.47792969 -3.71125 16.95585937 -3.5625 16.41796875 C-2.59540632 12.26080913 -2.10127904 8.02382702 -1.5 3.80078125 C-1 1 -1 1 0 0 Z " fill="#292929" transform="translate(32,8)"/>
<path d="M0 0 C1.5 1.0625 1.5 1.0625 3 3 C3.65882353 9.14901961 3.65882353 9.14901961 1.5 11.9375 C1.005 12.288125 0.51 12.63875 0 13 C-1 12 -1 12 -1.1328125 9.78515625 C-1.13023438 8.88667969 -1.12765625 7.98820312 -1.125 7.0625 C-1.12757812 6.16660156 -1.13015625 5.27070312 -1.1328125 4.34765625 C-1 2 -1 2 0 0 Z " fill="#DDDDDD" transform="translate(31,41)"/>
<path d="M0 0 C0.99 0 1.98 0 3 0 C3.33 1.65 3.66 3.3 4 5 C2.76115681 5.72767003 1.50831659 6.43154815 0.25 7.125 C-0.79414062 7.71667969 -0.79414062 7.71667969 -1.859375 8.3203125 C-4 9 -4 9 -6.265625 8.1171875 C-6.83796875 7.74851562 -7.4103125 7.37984375 -8 7 C-7.01 6.67 -6.02 6.34 -5 6 C-3.33289654 4.50014391 -3.33289654 4.50014391 -2 3 C-1.67 3.33 -1.34 3.66 -1 4 C-0.67 2.68 -0.34 1.36 0 0 Z " fill="#1F1F1F" transform="translate(55,57)"/>
<path d="M0 0 C0.66 0 1.32 0 2 0 C6 6.5 6 6.5 6 11 C4.68 11 3.36 11 2 11 C0.19769832 7.17010894 -0.19622241 4.21878192 0 0 Z " fill="#E2E2E2" transform="translate(56,11)"/>
<path d="M0 0 C1.65 0.33 3.3 0.66 5 1 C5 2.32 5 3.64 5 5 C4.34 5 3.68 5 3 5 C2.67 5.99 2.34 6.98 2 8 C1.01 8 0.02 8 -1 8 C-0.67 5.36 -0.34 2.72 0 0 Z " fill="#EDEDED" transform="translate(48,48)"/>
<path d="M0 0 C3.79379058 1.49041773 5.68343758 3.69062512 8 7 C8 7.66 8 8.32 8 9 C5.69 9.66 3.38 10.32 1 11 C0.67 10.34 0.34 9.68 0 9 C1.32 9 2.64 9 4 9 C2.09115308 4.45829004 2.09115308 4.45829004 0 0 Z " fill="#303030" transform="translate(58,13)"/>
<path d="M0 0 C0.99 0 1.98 0 3 0 C3.05437607 1.58294782 3.09296271 3.16644256 3.125 4.75 C3.14820313 5.63171875 3.17140625 6.5134375 3.1953125 7.421875 C2.99139502 10.1135858 2.36551721 11.69904974 1 14 C0 13 0 13 -0.09765625 10.05859375 C-0.08605469 8.86363281 -0.07445313 7.66867188 -0.0625 6.4375 C-0.05347656 5.23996094 -0.04445313 4.04242188 -0.03515625 2.80859375 C-0.02355469 1.88175781 -0.01195313 0.95492188 0 0 Z " fill="#DCDCDC" transform="translate(28,9)"/>
<path d="M0 0 C1.9375 0.75 1.9375 0.75 4 2 C4.75 4.125 4.75 4.125 5 6 C3.35 6.33 1.7 6.66 0 7 C0 4.69 0 2.38 0 0 Z " fill="#DDDDDD" transform="translate(46,57)"/>
<path d="M0 0 C0.66 0.33 1.32 0.66 2 1 C0.02 4.96 -1.96 8.92 -4 13 C-5.0920738 8.6317048 -4.92248587 7.84497174 -3 4 C-2.04175747 2.63634717 -1.05278825 1.29205831 0 0 Z " fill="#E5E5E5" transform="translate(21,17)"/>
<path d="M0 0 C-0.66 0.66 -1.32 1.32 -2 2 C-2.40047444 4.32275177 -2.7397104 6.65739357 -3 9 C-4.33333333 6.33333333 -5.66666667 3.66666667 -7 1 C-3.375 -1.125 -3.375 -1.125 0 0 Z " fill="#161616" transform="translate(61,26)"/>
<path d="M0 0 C2.12508244 3.18762365 2.5020163 5.26512223 3 9 C1.35 8.67 -0.3 8.34 -2 8 C-1.34 5.36 -0.68 2.72 0 0 Z " fill="#151515" transform="translate(51,36)"/>
<path d="M0 0 C1.98 0.495 1.98 0.495 4 1 C4 1.99 4 2.98 4 4 C2.35 4.33 0.7 4.66 -1 5 C-0.67 3.35 -0.34 1.7 0 0 Z " fill="#E4E4E4" transform="translate(60,50)"/>
<path d="M0 0 C0.66 0 1.32 0 2 0 C2.33 2.31 2.66 4.62 3 7 C0.525 6.01 0.525 6.01 -2 5 C-1.34 3.35 -0.68 1.7 0 0 Z " fill="#3D3D3D" transform="translate(21,50)"/>
<path d="M0 0 C-1 3 -1 3 -3 5 C-3.99 5 -4.98 5 -6 5 C-5.625 3.0625 -5.625 3.0625 -5 1 C-3 0 -3 0 0 0 Z " fill="#262626" transform="translate(25,21)"/>
<path d="M0 0 C0.33 0.99 0.66 1.98 1 3 C-0.28965176 4.37562854 -1.62689293 5.70766393 -3 7 C-3.66 7 -4.32 7 -5 7 C-3.70700306 4.11562221 -2.34058637 2.12780579 0 0 Z " fill="#222222" transform="translate(21,14)"/>
<path d="M0 0 C0.99 0 1.98 0 3 0 C2.67 1.98 2.34 3.96 2 6 C1.01 6 0.02 6 -1 6 C-1.042721 4.33388095 -1.04063832 2.66617115 -1 1 C-0.67 0.67 -0.34 0.34 0 0 Z " fill="#0A0A0A" transform="translate(32,8)"/>
<path d="M0 0 C0.66 1.32 1.32 2.64 2 4 C1.01 4.66 0.02 5.32 -1 6 C-2.32 5.34 -3.64 4.68 -5 4 C-4.01 3.67 -3.02 3.34 -2 3 C-1.34 2.01 -0.68 1.02 0 0 Z " fill="#535353" transform="translate(52,60)"/>
</svg>
